<svg width="218" height="224" viewBox="0 0 218 224" fill="none" xmlns="http://www.w3.org/2000/svg">
<path d="M202.5 30C210.784 30 217.5 23.2843 217.5 15C217.5 6.71573 210.784 0 202.5 0C194.216 0 187.5 6.71573 187.5 15C187.5 23.2843 194.216 30 202.5 30Z" fill="#FFC400"/>
<path d="M108.75 223.5C168.811 223.5 217.5 174.811 217.5 114.75C217.5 54.689 168.811 6 108.75 6C48.689 6 0 54.689 0 114.75C0 174.811 48.689 223.5 108.75 223.5Z" fill="#FFC400"/>
<path d="M147.907 66.418C147.907 63.426 145.48 61 142.489 61H73.865C70.873 61 68.447 63.426 68.447 66.418V86.283H64.835V89.894H68.447V118.79H64.835V122.4H68.447V163.936C68.447 166.928 70.873 169.354 73.865 169.354H142.489C145.481 169.354 147.907 166.928 147.907 163.936V122.4H151.518V118.79H147.907V89.894H151.518V86.283H147.907V66.418ZM129.847 64.612H133.459V71.294L133.156 70.839C132.802 70.365 132.245 70.086 131.653 70.086C131.062 70.086 130.505 70.365 130.151 70.839L129.848 71.294V64.612H129.847ZM144.295 118.789H129.848V122.4H144.295V163.936C144.295 164.933 143.486 165.742 142.489 165.742H73.865C72.867 165.742 72.059 164.933 72.059 163.936V122.4H86.506V118.79H72.06V89.894H85.76L92.454 96.589L95.007 94.035L87.784 86.812C87.445 86.473 86.986 86.282 86.507 86.282H72.06V66.419C72.06 65.421 72.868 64.613 73.866 64.613H126.236V77.254C126.236 78.05 126.757 78.752 127.519 78.983C128.281 79.213 129.104 78.918 129.545 78.256L131.655 75.087L133.764 78.251C134.204 78.912 135.026 79.207 135.787 78.978C136.548 78.748 137.07 78.048 137.072 77.254V64.612H142.49C143.487 64.612 144.296 65.42 144.296 66.418V86.283H129.848C129.368 86.283 128.909 86.473 128.571 86.812L121.347 94.035L123.901 96.589L130.595 89.894H144.295V118.79V118.789Z" fill="#0A1B24"/>
<path d="M92.7241 127.818H99.1471C99.8321 127.818 100.457 127.432 100.764 126.819L101.703 124.941L102.851 128.389C101.634 129.709 100.957 131.439 100.953 133.236C100.953 136.956 103.767 144.071 108.177 144.071C112.587 144.071 115.4 136.956 115.4 133.236C115.396 131.44 114.717 129.712 113.499 128.392L114.649 124.943L115.589 126.823C115.896 127.435 116.522 127.82 117.206 127.818H123.63C124.814 127.818 125.922 127.238 126.597 126.265C127.271 125.292 127.427 124.051 127.012 122.942L123.388 113.281C122.679 111.407 120.998 110.075 119.012 109.813V99.2582C119.02 97.4502 118.477 95.6832 117.457 94.1912C112.047 86.2832 109.134 86.2832 108.177 86.2832C107.22 86.2832 104.305 86.2832 98.8971 94.1892C97.8771 95.6822 97.3351 97.4492 97.3411 99.2582V109.813C95.3571 110.074 93.6761 111.404 92.9661 113.275L89.3411 122.942C88.9271 124.051 89.0821 125.292 89.7571 126.265C90.4321 127.238 91.5401 127.818 92.7241 127.818ZM111.09 124.206L110.487 126.012H105.867L105.264 124.206H111.09V124.206ZM108.177 140.46C106.826 140.46 104.565 135.937 104.565 133.237C104.565 131.242 106.182 129.625 108.177 129.625C110.172 129.625 111.789 131.242 111.789 133.237C111.789 135.946 109.528 140.46 108.177 140.46ZM120.005 114.544L123.63 124.207H118.322L118.165 123.893C118.685 123.575 119.005 123.011 119.012 122.401V113.533C119.468 113.719 119.827 114.085 120.005 114.544ZM100.953 99.2582C100.948 98.1782 101.27 97.1232 101.876 96.2292C105.306 91.2182 107.498 89.8942 108.176 89.8942C108.856 89.8942 111.048 91.2182 114.478 96.2312C115.085 97.1232 115.406 98.1792 115.401 99.2582V120.595H109.983V109.759H106.37V120.595H100.952V99.2582H100.953ZM96.3461 114.543C96.5261 114.084 96.8861 113.719 97.3411 113.532V122.4C97.3491 123.01 97.6681 123.574 98.1881 123.892L98.0311 124.206H92.7241L96.3461 114.543V114.543Z" fill="#0A1B24"/>
<path d="M108.177 104.341C111.169 104.341 113.595 101.916 113.595 98.924C113.595 95.932 111.169 93.506 108.177 93.506C105.185 93.506 102.759 95.932 102.759 98.924C102.759 101.916 105.185 104.341 108.177 104.341ZM108.177 97.118C109.174 97.118 109.983 97.926 109.983 98.924C109.983 99.921 109.174 100.73 108.177 100.73C107.179 100.73 106.371 99.921 106.371 98.924C106.371 97.926 107.179 97.118 108.177 97.118ZM119.012 131.43H122.624V138.654H119.012V131.43ZM93.73 131.43H97.342V138.654H93.73V131.43ZM120.818 144.071C117.826 144.071 115.4 146.497 115.4 149.489H119.012C119.012 148.491 119.821 147.683 120.818 147.683C121.815 147.683 122.624 148.491 122.624 149.489C122.621 149.593 122.613 149.696 122.599 149.799C122.525 150.481 122.843 151.146 123.419 151.515C123.997 151.885 124.734 151.896 125.322 151.544C125.598 151.379 125.914 151.293 126.236 151.294C127.233 151.294 128.042 152.104 128.042 153.101C128.042 154.098 127.233 154.907 126.236 154.907H90.118C89.121 154.907 88.312 154.098 88.312 153.101C88.312 152.103 89.121 151.295 90.118 151.295C90.44 151.293 90.756 151.379 91.032 151.544C91.622 151.898 92.36 151.886 92.938 151.514C93.516 151.142 93.833 150.474 93.755 149.79C93.74 149.69 93.731 149.59 93.73 149.489C93.73 148.491 94.538 147.683 95.536 147.683C96.533 147.683 97.341 148.491 97.341 149.489H100.953C100.955 146.847 99.051 144.589 96.447 144.144C93.842 143.7 91.297 145.199 90.423 147.692C88.939 147.62 87.489 148.156 86.409 149.177C85.329 150.197 84.712 151.615 84.7 153.101C84.706 153.717 84.819 154.328 85.032 154.907H79.282V158.518H137.072V154.907H131.322C131.535 154.328 131.647 153.717 131.653 153.101C131.649 151.611 131.034 150.191 129.952 149.168C128.87 148.145 127.415 147.612 125.929 147.692C125.166 145.522 123.117 144.072 120.819 144.072L120.818 144.071ZM79.283 71.835H86.507V75.447H79.283V71.835ZM90.118 71.835H100.953V75.447H90.118V71.835ZM79.283 79.059H100.954V82.671H79.283V79.059ZM155.13 86.283H162.354V89.895H155.13V86.283ZM155.13 93.506H162.354V97.118H155.13V93.506ZM155.13 118.789H162.354V122.401H155.13V118.789ZM155.13 126.012H162.354V129.624H155.13V126.012ZM54 86.283H61.224V89.895H54V86.283ZM54 93.506H61.224V97.118H54V93.506ZM54 118.789H61.224V122.401H54V118.789ZM54 126.012H61.224V129.624H54V126.012Z" fill="#0A1B24"/>
</svg>
