<svg width="218" height="224" viewBox="0 0 218 224" fill="none" xmlns="http://www.w3.org/2000/svg">
<path d="M202.5 30C210.784 30 217.5 23.2843 217.5 15C217.5 6.71573 210.784 0 202.5 0C194.216 0 187.5 6.71573 187.5 15C187.5 23.2843 194.216 30 202.5 30Z" fill="#FFC400"/>
<path d="M108.75 223.5C168.811 223.5 217.5 174.811 217.5 114.75C217.5 54.689 168.811 6 108.75 6C48.689 6 0 54.689 0 114.75C0 174.811 48.689 223.5 108.75 223.5Z" fill="#FFC400"/>
<path d="M109.4 70.2002H113.2V74.0002H109.4V70.2002ZM101.8 70.2002H105.6V74.0002H101.8V70.2002ZM105.6 150H109.4V153.8H105.6V150ZM67.6001 93.0002H71.4001V96.8002H67.6001V93.0002ZM75.2001 93.0002H79.0001V96.8002H75.2001V93.0002ZM82.8001 93.0002H86.6001V96.8002H82.8001V93.0002ZM90.4001 93.0002H94.2001V96.8002H90.4001V93.0002ZM98.0001 93.0002H101.8V96.8002H98.0001V93.0002ZM126.5 127.2H130.3V131H126.5V127.2ZM134.1 127.2H149.3V131H134.1V127.2ZM126.5 134.8H149.3V138.6H126.5V134.8ZM126.5 142.4H149.3V146.2H126.5V142.4Z" fill="black"/>
<path d="M75.2 64.5001V85.4001H61.9C60.85 85.4001 60 86.2501 60 87.3001V102.5C60 103.55 60.85 104.4 61.9 104.4H75.2V159.5C75.2 160.55 76.05 161.4 77.1 161.4H137.9C138.95 161.4 139.8 160.55 139.8 159.5V153.8H155C156.05 153.8 156.9 152.95 156.9 151.9V121.5C156.9 120.45 156.05 119.6 155 119.6H139.8V64.5001C139.8 63.4501 138.95 62.6001 137.9 62.6001H77.1C76.05 62.6001 75.2 63.4501 75.2 64.5001V64.5001ZM63.8 89.2001H105.6V100.6H63.8V89.2001ZM136 157.6H79V146.2H118.9V151.9C118.9 152.95 119.75 153.8 120.8 153.8H136V157.6V157.6ZM153.1 150H122.7V123.4H153.1V150ZM120.8 119.6C119.75 119.6 118.9 120.45 118.9 121.5V142.4H79V104.4H107.5C108.55 104.4 109.4 103.55 109.4 102.5V87.3001C109.4 86.2501 108.55 85.4001 107.5 85.4001H79V81.6001H136V119.6H120.8ZM136 66.4001V77.8001H79V66.4001H136Z" fill="black"/>
<path d="M107.5 110.1H99.9001C98.8501 110.1 98.0001 110.95 98.0001 112V119.6C98.0001 120.65 98.8501 121.5 99.9001 121.5H107.5C108.55 121.5 109.4 120.65 109.4 119.6V112C109.4 110.95 108.55 110.1 107.5 110.1ZM105.6 117.7H101.8V113.9H105.6V117.7ZM84.7001 121.5H92.3001C93.3501 121.5 94.2001 120.65 94.2001 119.6V112C94.2001 110.95 93.3501 110.1 92.3001 110.1H84.7001C83.6501 110.1 82.8001 110.95 82.8001 112V119.6C82.8001 120.65 83.6501 121.5 84.7001 121.5V121.5ZM86.6001 113.9H90.4001V117.7H86.6001V113.9ZM128.007 98.424C130.22 96.266 130.905 92.983 129.739 90.119C128.574 87.256 125.791 85.384 122.7 85.384C119.609 85.384 116.826 87.256 115.66 90.119C114.495 92.983 115.18 96.266 117.393 98.424C114.773 100.189 113.201 103.141 113.2 106.3V113.9C113.2 114.95 114.05 115.8 115.1 115.8H130.3C131.35 115.8 132.2 114.95 132.2 113.9V106.3C132.199 103.14 130.627 100.19 128.007 98.424ZM118.9 93C118.9 90.901 120.601 89.2 122.7 89.2C124.799 89.2 126.5 90.901 126.5 93C126.5 95.099 124.799 96.8 122.7 96.8C120.601 96.8 118.9 95.099 118.9 93V93ZM128.4 112H117V106.3C117 103.152 119.552 100.6 122.7 100.6C125.848 100.6 128.4 103.152 128.4 106.3V112ZM82.8001 125.3H86.6001V129.1H82.8001V125.3ZM90.4001 125.3H109.4V129.1H90.4001V125.3ZM82.8001 132.9H109.4V136.7H82.8001V132.9ZM96.1001 165.2H134.1V169H96.1001V165.2ZM67.6001 110.1H71.4001V140.5H67.6001V110.1ZM147.4 62.6C147.4 58.403 143.997 55 139.8 55H115.1V58.8H139.8C141.899 58.8 143.6 60.501 143.6 62.6V93H147.4V62.6V62.6ZM143.6 96.8H147.4V100.6H143.6V96.8Z" fill="black"/>
</svg>
