<svg xmlns="http://www.w3.org/2000/svg" width="79" height="94" viewBox="0 0 79 94">
    <g fill="none" fill-rule="evenodd">
        <g fill="#FFF" fill-rule="nonzero">
            <g>
                <g>
                    <path d="M39.867 12.267H42.934V15.334H39.867zM33.733 12.267H36.8V15.334H33.733zM36.8 76.667H39.867V79.73400000000001H36.8zM6.133 30.667H9.2V33.734H6.133zM12.267 30.667H15.334V33.734H12.267zM18.4 30.667H21.467V33.734H18.4zM24.533 30.667H27.6V33.734H24.533zM30.667 30.667H33.734V33.734H30.667zM53.667 58.267H56.734V61.334H53.667zM59.8 58.267H72.067V61.334H59.8zM53.667 64.4H72.06700000000001V67.46700000000001H53.667zM53.667 70.533H72.06700000000001V73.6H53.667z" transform="translate(-674 -1915) translate(230 1643.32) translate(444 272.68)"/>
                    <path d="M12.267 7.667v16.866H1.533C.686 24.533 0 25.22 0 26.067v12.266c0 .847.686 1.534 1.533 1.534h10.734v44.466c0 .847.686 1.534 1.533 1.534h49.067c.847 0 1.533-.687 1.533-1.534v-4.6h12.267c.847 0 1.533-.686 1.533-1.533V53.667c0-.847-.686-1.534-1.533-1.534H64.4V7.667c0-.847-.686-1.534-1.533-1.534H13.8c-.847 0-1.533.687-1.533 1.534zM3.067 27.6H36.8v9.2H3.067v-9.2zm58.266 55.2h-46v-9.2h32.2v4.6c0 .847.687 1.533 1.534 1.533h12.266V82.8zm13.8-6.133H50.6V55.2h24.533v21.467zM49.067 52.133c-.847 0-1.534.687-1.534 1.534v16.866h-32.2V39.867h23c.847 0 1.534-.687 1.534-1.534V26.067c0-.847-.687-1.534-1.534-1.534h-23v-3.066h46v30.666H49.067zM61.333 9.2v9.2h-46V9.2h46z" transform="translate(-674 -1915) translate(230 1643.32) translate(444 272.68)"/>
                    <path d="M38.333 44.467H32.2c-.847 0-1.533.686-1.533 1.533v6.133c0 .847.686 1.534 1.533 1.534h6.133c.847 0 1.534-.687 1.534-1.534V46c0-.847-.687-1.533-1.534-1.533zM36.8 50.6h-3.067v-3.067H36.8V50.6zM19.933 53.667h6.134c.847 0 1.533-.687 1.533-1.534V46c0-.847-.686-1.533-1.533-1.533h-6.134c-.847 0-1.533.686-1.533 1.533v6.133c0 .847.686 1.534 1.533 1.534zm1.534-6.134h3.066V50.6h-3.066v-3.067zM54.883 35.044c1.785-1.742 2.338-4.391 1.398-6.702-.94-2.31-3.186-3.822-5.681-3.822s-4.74 1.511-5.681 3.822c-.94 2.31-.387 4.96 1.398 6.702-2.114 1.424-3.383 3.807-3.384 6.356v6.133c0 .847.687 1.534 1.534 1.534h12.266c.847 0 1.534-.687 1.534-1.534V41.4c-.001-2.55-1.27-4.932-3.384-6.356zm-7.35-4.377c0-1.694 1.373-3.067 3.067-3.067 1.694 0 3.067 1.373 3.067 3.067 0 1.693-1.373 3.066-3.067 3.066-1.694 0-3.067-1.373-3.067-3.066zM55.2 46H46v-4.6c0-2.54 2.06-4.6 4.6-4.6 2.54 0 4.6 2.06 4.6 4.6V46zM18.4 56.733H21.467V59.8H18.4zM24.533 56.733H39.866V59.8H24.533zM18.4 62.867H39.867V65.934H18.4zM29.133 88.933H59.8V92H29.133zM6.133 44.467H9.2V69H6.133zM70.533 6.133C70.533 2.746 67.787 0 64.4 0H44.467v3.067H64.4c1.694 0 3.067 1.373 3.067 3.066v24.534h3.066V6.133zM67.467 33.733H70.53399999999999V36.8H67.467z" transform="translate(-674 -1915) translate(230 1643.32) translate(444 272.68)"/>
                </g>
            </g>
        </g>
    </g>
</svg>
