<svg xmlns="http://www.w3.org/2000/svg" width="80" height="82" viewBox="0 0 80 82">
    <g fill="none" fill-rule="evenodd">
        <g fill="#FFF" fill-rule="nonzero">
            <g>
                <g>
                    <path d="M68.796 3.969C68.796 1.777 67.019 0 64.827 0H14.553c-2.192 0-3.969 1.777-3.969 3.969v14.553H7.938v2.646h2.646v21.168H7.938v2.646h2.646v30.429c0 2.192 1.777 3.969 3.969 3.969h50.274c2.192 0 3.969-1.777 3.969-3.969V44.982h2.646v-2.646h-2.646V21.168h2.646v-2.646h-2.646V3.969zm-13.23-1.323h2.646v4.895l-.222-.333c-.26-.347-.668-.552-1.101-.552-.433 0-.841.205-1.1.552l-.223.333V2.646zm10.584 39.69H55.566v2.646H66.15v30.429c0 .73-.592 1.323-1.323 1.323H14.553c-.73 0-1.323-.592-1.323-1.323V44.982h10.584v-2.646H13.23V21.168h10.036l4.905 4.904 1.87-1.87-5.292-5.292c-.248-.248-.584-.388-.935-.388H13.23V3.969c0-.73.592-1.323 1.323-1.323H52.92v9.261c0 .583.381 1.097.94 1.266.557.17 1.16-.047 1.484-.532l1.545-2.322 1.545 2.318c.323.485.925.701 1.483.533.557-.168.94-.68.941-1.263V2.646h3.969c.73 0 1.323.592 1.323 1.323v14.553H55.566c-.35 0-.687.14-.935.388l-5.292 5.292 1.87 1.87 4.905-4.904H66.15v21.168z" transform="translate(-290 -1920) translate(230 1643.32) translate(60 277.68)"/>
                    <path d="M28.37 48.951h4.705c.501 0 .96-.283 1.184-.732l.688-1.376.841 2.526c-.891.968-1.388 2.235-1.39 3.551 0 2.725 2.061 7.938 5.292 7.938 3.23 0 5.292-5.213 5.292-7.938-.004-1.316-.5-2.582-1.393-3.548l.843-2.527.688 1.377c.225.448.684.73 1.185.729h4.706c.867 0 1.68-.425 2.173-1.138.495-.712.608-1.622.305-2.434L50.834 38.3c-.52-1.373-1.751-2.349-3.206-2.54v-7.733c.005-1.325-.392-2.62-1.14-3.713-3.963-5.793-6.097-5.793-6.798-5.793-.701 0-2.837 0-6.799 5.792-.747 1.094-1.144 2.39-1.139 3.714v7.733c-1.454.19-2.685 1.165-3.206 2.536l-2.655 7.082c-.303.812-.19 1.722.305 2.434.494.713 1.306 1.138 2.173 1.138zm13.454-2.646l-.442 1.323h-3.384l-.442-1.323h4.268zM39.69 58.212c-.99 0-2.646-3.314-2.646-5.292 0-1.461 1.185-2.646 2.646-2.646 1.461 0 2.646 1.185 2.646 2.646 0 1.984-1.656 5.292-2.646 5.292zm8.666-18.986l2.655 7.079h-3.888l-.115-.23c.38-.234.615-.646.62-1.093v-6.497c.334.136.597.404.728.74zM34.398 28.028c-.004-.791.232-1.565.676-2.219 2.512-3.671 4.119-4.641 4.616-4.641.497 0 2.104.97 4.616 4.642.445.654.68 1.427.676 2.218v15.631h-3.969v-7.938h-2.646v7.938h-3.97V28.028zm-3.375 11.198c.132-.336.395-.604.729-.741v6.497c.005.447.24.86.62 1.093l-.115.23H28.37l2.654-7.08z" transform="translate(-290 -1920) translate(230 1643.32) translate(60 277.68)"/>
                    <path d="M39.69 31.752c2.192 0 3.969-1.777 3.969-3.969s-1.777-3.969-3.969-3.969-3.969 1.777-3.969 3.969 1.777 3.969 3.969 3.969zm0-5.292c.73 0 1.323.592 1.323 1.323 0 .73-.592 1.323-1.323 1.323-.73 0-1.323-.592-1.323-1.323 0-.73.592-1.323 1.323-1.323zM47.628 51.597H50.274V56.889H47.628zM29.106 51.597H31.752000000000002V56.889H29.106zM48.951 60.858c-2.192 0-3.969 1.777-3.969 3.969h2.646c0-.73.592-1.323 1.323-1.323.73 0 1.323.592 1.323 1.323-.002.076-.008.152-.019.228-.054.499.18.986.602 1.257.423.27.963.279 1.394.02.202-.12.433-.183.669-.182.73 0 1.323.592 1.323 1.323 0 .73-.592 1.323-1.323 1.323H26.46c-.73 0-1.323-.592-1.323-1.323 0-.73.592-1.323 1.323-1.323.236-.002.467.062.67.183.431.259.973.25 1.396-.023.424-.272.656-.762.599-1.262-.012-.073-.018-.147-.019-.221 0-.73.592-1.323 1.323-1.323.73 0 1.323.592 1.323 1.323h2.646c.001-1.936-1.393-3.59-3.301-3.916-1.908-.325-3.773.773-4.413 2.6-1.088-.053-2.15.34-2.941 1.087-.791.748-1.244 1.786-1.252 2.875.004.452.087.9.243 1.323h-4.212v2.646h42.336v-2.646h-4.212c.156-.424.239-.871.243-1.323-.003-1.09-.454-2.132-1.247-2.881-.792-.75-1.858-1.14-2.947-1.081-.559-1.59-2.06-2.653-3.744-2.653zM18.522 7.938H23.814V10.584H18.522zM26.46 7.938H34.398V10.584H26.46zM18.522 13.23H34.397999999999996V15.876000000000001H18.522zM74.088 18.522H79.38V21.168H74.088zM74.088 23.814H79.38V26.46H74.088zM74.088 42.336H79.38V44.982H74.088zM74.088 47.628H79.38V50.274H74.088zM0 18.522H5.292V21.168H0zM0 23.814H5.292V26.46H0zM0 42.336H5.292V44.982H0zM0 47.628H5.292V50.274H0z" transform="translate(-290 -1920) translate(230 1643.32) translate(60 277.68)"/>
                </g>
            </g>
        </g>
    </g>
</svg>
