<svg xmlns="http://www.w3.org/2000/svg" width="195" height="37" viewBox="0 0 195 37">
    <g fill="none" fill-rule="evenodd">
        <g fill-rule="nonzero">
            <g>
                <g>
                    <path fill="#FFF" d="M7.495 28.2v-8.754c0-.899.12-1.72.319-2.501.638-2.54 2.352-4.612 4.904-4.612 2.432 0 2.75 1.837 2.75 3.987V28.2h5.064v-8.754c0-.938.08-1.759.318-2.54.559-2.501 2.353-4.573 4.864-4.573 2.352 0 2.791 1.72 2.791 3.987v9.223c0 1.875.797 2.657 2.71 2.657H36v-4.182h-1.555c-.558 0-.877-.312-.877-.86v-7.776c0-5.237-2.432-7.582-6.658-7.582-3.229 0-5.86 1.954-6.937 4.103h-.08c-.876-2.696-2.87-4.103-5.94-4.103-3.189 0-5.62 2.189-6.578 4.143h-.08s.04-.43.04-.86v-.586c0-1.407-.877-2.228-2.67-2.228H0v4.22h1.595c.558 0 .877.274.877.86V28.2h5.023zm34.265 8.4c3.04 0 5.92-1.64 7.36-5.32l7.32-18.44c.24-.6.56-.72 1.16-.72h.6V7.8h-3.44c-1.4 0-2.24.52-2.72 1.92l-3.48 10.2c-.36 1.04-.68 2.72-.68 2.72h-.08s-.32-1.68-.72-2.72l-4-10.2c-.52-1.4-1.24-1.92-2.68-1.92h-3.36v4.32h.6c.56 0 .84.12 1.08.72l6.8 15.32-.68 1.56c-.72 1.76-1.96 2.6-3.36 2.6-1.68 0-2.92-1.4-2.92-1.4l-1.96 3.6.04.04c.295.292 2.187 2.04 5.12 2.04zm29.37-7.8c5.605 0 8.67-3.618 8.67-3.618l-2.137-3.46s-2.581 2.713-6.09 2.713c-3.306 0-6.411-2.084-6.411-6.174 0-3.618 2.54-6.253 6.089-6.253 1.25 0 2.944.472 2.944 1.573v1.101h4.516v-2.36c0-3.46-4.799-4.522-7.46-4.522C64.194 7.8 60 12.637 60 18.3c0 5.82 4.355 10.5 11.13 10.5zm17.807-.6v-7.97c0-1.184.156-2.29.429-3.276.897-2.998 3.317-4.222 5.424-4.222.703 0 1.21.08 1.21.08V7.878s-.468-.079-.898-.079c-3.043 0-5.424 2.289-6.322 5.17h-.078l.009-.06c.02-.156.07-.604.07-1.204v-1.183c0-1.697-.898-2.447-2.654-2.447H81.6v4.262h1.561c.546 0 .859.276.859.868V28.2h4.917zm20.543.6c6.195 0 11.12-4.326 11.12-10.5 0-6.135-4.925-10.5-11.12-10.5-6.155 0-11.08 4.365-11.08 10.5 0 6.174 4.925 10.5 11.08 10.5zm-.3-4.2c-3.247 0-5.98-2.536-5.98-6.3 0-3.725 2.733-6.3 5.98-6.3 3.287 0 6.02 2.575 6.02 6.3 0 3.764-2.733 6.3-6.02 6.3zm20.844 3.6V12.046h4.374V8.057h-4.374v-.474c0-2.922 2.488-3.278 3.933-3.278.602 0 1.043.079 1.043.079V.118S134.318 0 133.275 0c-2.85 0-8.347.869-8.347 7.465v.592H122.4v3.99h2.528V28.2h5.096zm18.952.6c.958 0 1.624-.121 1.624-.121v-4.48s-.375.08-.958.08c-1.457 0-4.205-.485-4.205-3.875v-8.316h4.83V8.011h-4.83V2.4h-5.164v5.611H137.4v4.077h2.748v8.962c0 6.902 5.872 7.75 8.828 7.75zm23.224-.6v-4.28h-1.632c-.571 0-.898-.32-.898-.88V10.52c0-1.88-.816-2.72-2.733-2.72H162v4.32h1.632c.571 0 .898.28.898.88v12.48c0 1.92.816 2.72 2.733 2.72h4.937zm12.85.6c.914 0 1.55-.121 1.55-.121v-4.48s-.358.08-.914.08c-1.391 0-4.015-.485-4.015-3.875v-8.316h4.611V8.011h-4.61V2.4h-4.93v5.611H174v4.077h2.623v8.962c0 6.902 5.605 7.75 8.427 7.75z" transform="translate(-149 -59) translate(149 59)"/>
                    <path fill="#FEC41B" d="M194.4 28.8L194.4 24 189.6 24 189.6 28.8z" transform="translate(-149 -59) translate(149 59)"/>
                </g>
                <path fill="#FEC41B" d="M169.2 4.8L169.2 0 164.4 0 164.4 4.8z" transform="translate(-149 -59) translate(149 59)"/>
            </g>
        </g>
    </g>
</svg>
