<svg xmlns="http://www.w3.org/2000/svg" width="117" height="22" viewBox="0 0 117 22">
    <g fill="none" fill-rule="evenodd">
        <g fill-rule="nonzero">
            <g>
                <g>
                    <path fill="#FFF" d="M4.497 16.92v-5.252c0-.54.072-1.032.191-1.501C5.071 8.643 6.1 7.4 7.631 7.4c1.459 0 1.65 1.102 1.65 2.392v7.128h3.038v-5.252c0-.563.048-1.056.191-1.525.335-1.5 1.412-2.743 2.919-2.743 1.41 0 1.674 1.032 1.674 2.392v5.534c0 1.125.478 1.594 1.627 1.594h2.87v-2.509h-.933c-.335 0-.526-.188-.526-.516V9.23c0-3.142-1.46-4.549-3.995-4.549-1.937 0-3.516 1.172-4.162 2.462h-.048C11.41 5.524 10.214 4.68 8.372 4.68 6.458 4.68 5 5.993 4.425 7.166h-.048s.024-.258.024-.516v-.352c0-.844-.526-1.337-1.602-1.337H0v2.533h.957c.335 0 .526.164.526.516v8.91h3.014zm20.559 5.04c1.824 0 3.552-.984 4.416-3.192l4.392-11.064c.144-.36.336-.432.696-.432h.36V4.68h-2.064c-.84 0-1.344.312-1.632 1.152l-2.088 6.12c-.216.624-.408 1.632-.408 1.632h-.048s-.192-1.008-.432-1.632l-2.4-6.12c-.312-.84-.744-1.152-1.608-1.152h-2.016v2.592h.36c.336 0 .504.072.648.432l4.08 9.192-.408.936c-.432 1.056-1.176 1.56-2.016 1.56-1.008 0-1.752-.84-1.752-.84l-1.176 2.16.024.025c.177.174 1.312 1.223 3.072 1.223zm17.622-4.68c3.363 0 5.202-2.17 5.202-2.17l-1.282-2.077s-1.549 1.628-3.654 1.628c-1.984 0-3.847-1.25-3.847-3.705 0-2.17 1.524-3.751 3.654-3.751.75 0 1.766.283 1.766.944v.66h2.71V7.393c0-2.076-2.88-2.713-4.476-2.713-4.235 0-6.751 2.902-6.751 6.3 0 3.492 2.613 6.3 6.678 6.3zm10.684-.36v-4.782c0-.71.094-1.374.258-1.965.538-1.8 1.99-2.534 3.254-2.534.422 0 .726.048.726.048v-2.96s-.281-.047-.539-.047c-1.826 0-3.254 1.373-3.793 3.101h-.047l.005-.035c.012-.093.042-.362.042-.722v-.71c0-1.018-.538-1.468-1.592-1.468H48.96v2.557h.937c.327 0 .515.165.515.52v8.997h2.95zm12.326.36c3.717 0 6.672-2.596 6.672-6.3 0-3.68-2.955-6.3-6.672-6.3-3.693 0-6.648 2.62-6.648 6.3 0 3.704 2.955 6.3 6.648 6.3zm-.18-2.52c-1.948 0-3.588-1.522-3.588-3.78 0-2.235 1.64-3.78 3.588-3.78 1.972 0 3.612 1.545 3.612 3.78 0 2.258-1.64 3.78-3.612 3.78zm12.507 2.16V7.228h2.624V4.834h-2.624V4.55c0-1.754 1.492-1.967 2.359-1.967.361 0 .626.047.626.047V.071S80.59 0 79.965 0c-1.71 0-5.008.521-5.008 4.479v.355H73.44v2.394h1.517v9.692h3.058zm11.37.36c.575 0 .975-.073.975-.073V14.52s-.225.048-.575.048c-.874 0-2.523-.29-2.523-2.325v-4.99h2.898V4.808h-2.898V1.44h-3.098v3.367H82.44v2.446h1.649v5.377c0 4.141 3.523 4.65 5.297 4.65zm13.935-.36v-2.568h-.98c-.342 0-.538-.192-.538-.528V6.312c0-1.128-.49-1.632-1.64-1.632H97.2v2.592h.98c.342 0 .538.168.538.528v7.488c0 1.152.49 1.632 1.64 1.632h2.962zm7.71.36c.548 0 .93-.073.93-.073V14.52s-.215.048-.549.048c-.834 0-2.408-.29-2.408-2.325v-4.99h2.766V4.808h-2.766V1.44h-2.957v3.367H104.4v2.446h1.574v5.377c0 4.141 3.363 4.65 5.056 4.65z" transform="translate(-150 -4049) translate(150 4049)"/>
                    <path fill="#FEC41B" d="M116.64 17.28L116.64 14.4 113.76 14.4 113.76 17.28z" transform="translate(-150 -4049) translate(150 4049)"/>
                </g>
                <path fill="#FEC41B" d="M101.52 2.88L101.52 0 98.64 0 98.64 2.88z" transform="translate(-150 -4049) translate(150 4049)"/>
            </g>
        </g>
    </g>
</svg>
