<svg width="224" height="218" viewBox="0 0 224 218" fill="none" xmlns="http://www.w3.org/2000/svg">
<g clip-path="url(#clip0)">
<path d="M194 202.5C194 210.784 200.716 217.5 209 217.5C217.284 217.5 224 210.784 224 202.5C224 194.216 217.284 187.5 209 187.5C200.716 187.5 194 194.216 194 202.5Z" fill="#FFC400"/>
<path d="M0.5 108.75C0.5 168.811 49.189 217.5 109.25 217.5C169.311 217.5 218 168.811 218 108.75C218 48.689 169.311 0 109.25 0C49.189 0 0.5 48.689 0.5 108.75Z" fill="#FFC400"/>
<g clip-path="url(#clip1)">
<path d="M159.4 145.134C159.314 144.746 159.27 144.35 159.27 143.954V109.954C159.28 106.414 157.958 103 155.568 100.389C155.615 100.053 155.64 99.714 155.64 99.375V90.3C155.64 89.613 155.252 88.984 154.637 88.677L147.997 85.357C146.993 84.851 145.841 84.723 144.75 84.994V83.04C144.75 82.038 143.937 81.225 142.935 81.225H135.593C134.729 81.228 133.95 80.708 133.62 79.909L133.598 79.855C133.264 79.056 133.447 78.135 134.06 77.525L139.252 72.333C139.592 71.993 139.783 71.53 139.783 71.049C139.783 70.568 139.592 70.106 139.252 69.766L128.984 59.498C128.275 58.79 127.127 58.79 126.418 59.498L121.226 64.69C120.614 65.304 119.692 65.486 118.893 65.151L118.843 65.131C118.043 64.802 117.523 64.021 117.525 63.157V55.815C117.525 54.813 116.712 54 115.71 54H101.19C100.188 54 99.3749 54.813 99.3749 55.815V63.157C99.3769 64.022 98.8549 64.803 98.0549 65.131L98.0049 65.152C97.2059 65.486 96.2849 65.303 95.6739 64.69L90.4819 59.498C89.7729 58.79 88.6249 58.79 87.9159 59.498L77.6489 69.766C77.3089 70.106 77.1169 70.568 77.1169 71.049C77.1169 71.53 77.3079 71.992 77.6489 72.333L82.8399 77.523C83.4539 78.136 83.6359 79.06 83.2999 79.86L83.2809 79.907C82.9509 80.707 82.1709 81.227 81.3069 81.225H73.9649C72.9629 81.225 72.1499 82.038 72.1499 83.04V84.994C71.0599 84.722 69.9069 84.851 68.9029 85.357L62.2629 88.677C61.6479 88.984 61.2599 89.613 61.2599 90.3V99.375C61.2599 99.715 61.2849 100.053 61.3319 100.389C58.9419 102.999 57.6199 106.414 57.6299 109.953V143.953C57.6299 144.35 57.5859 144.746 57.4999 145.134L54.0429 160.691C53.9229 161.229 54.0549 161.791 54.3989 162.221C54.7439 162.651 55.2649 162.9 55.8149 162.9H61.2599C61.9109 162.9 62.5129 162.551 62.8359 161.985L69.5989 150.15C70.0109 149.429 70.3219 148.655 70.5239 147.849L71.0679 145.671C71.0869 145.726 71.1079 145.779 71.1249 145.835L75.8569 161.607C76.0869 162.374 76.7939 162.9 77.5949 162.9H83.0399C83.5499 162.9 84.0359 162.685 84.3799 162.309C84.7239 161.932 84.8939 161.429 84.8479 160.921L83.1569 142.32C83.0549 141.193 82.7429 140.095 82.2359 139.083L77.5949 129.802V122.97H88.4849C89.4449 122.97 90.2379 122.221 90.2949 121.263C90.3609 121.213 90.4229 121.16 90.4819 121.102L95.6739 115.91C96.2859 115.296 97.2079 115.114 98.0069 115.449L98.0569 115.469C98.8569 115.798 99.3769 116.579 99.3749 117.443V124.785C99.3749 125.787 100.188 126.6 101.19 126.6H115.71C116.712 126.6 117.525 125.787 117.525 124.785V117.443C117.523 116.578 118.045 115.797 118.845 115.469L118.895 115.448C119.694 115.114 120.615 115.297 121.226 115.91L126.418 121.102C126.477 121.16 126.539 121.213 126.605 121.262C126.662 122.222 127.455 122.97 128.415 122.97H139.305V129.802L134.665 139.083C134.157 140.095 133.845 141.193 133.743 142.32L132.053 160.92C132.006 161.428 132.176 161.932 132.52 162.309C132.864 162.685 133.35 162.9 133.86 162.9H139.305C140.107 162.9 140.813 162.374 141.043 161.607L145.775 145.835C145.792 145.779 145.813 145.725 145.832 145.671L146.376 147.849C146.578 148.655 146.889 149.429 147.301 150.15L154.064 161.985C154.387 162.551 154.989 162.9 155.64 162.9H161.085C161.635 162.9 162.156 162.65 162.501 162.22C162.845 161.791 162.976 161.229 162.857 160.691L159.4 145.134ZM155.64 109.954V113.144L152.01 116.774L148.224 112.987L149.664 111.548L147.097 108.982L143.917 112.162L142.935 112.27V109.953C142.932 108.304 143.317 106.678 144.058 105.205C147.113 107.475 151.403 106.995 153.88 104.105C155.033 105.838 155.645 107.873 155.64 109.953V109.954ZM144.75 99.374V95.744H152.01V99.374C152.01 101.379 150.385 103.004 148.38 103.004C146.375 103.004 144.75 101.379 144.75 99.374V99.374ZM141.659 102.114C140.405 104.003 139.626 106.167 139.389 108.421C139.346 108.367 139.3 108.315 139.252 108.266L134.06 103.076C133.446 102.463 133.264 101.539 133.6 100.739L133.62 100.692C133.948 99.892 134.728 99.372 135.593 99.374H141.12C141.12 100.314 141.302 101.244 141.659 102.114V102.114ZM139.305 110.774V112.673L137.175 112.909L139.252 110.833C139.271 110.814 139.287 110.793 139.305 110.774ZM133.067 117.018L144.95 115.7C145.178 115.674 145.398 115.606 145.6 115.498L149.099 118.996C148.487 119.225 147.84 119.342 147.188 119.341H130.746L133.066 117.021L133.067 117.018ZM145.872 88.484C146.046 88.484 146.218 88.524 146.373 88.602L152.01 91.421V92.114H144.75V89.606C144.75 88.986 145.253 88.485 145.872 88.484ZM71.1839 115.43C71.4159 115.576 71.6769 115.668 71.9499 115.699L83.8339 117.019L86.1539 119.34H69.7119C68.9339 119.341 68.1639 119.175 67.4549 118.852L71.1849 115.43H71.1839ZM77.5949 112.674V110.775L77.6489 110.835L79.7249 112.91L77.5949 112.674V112.674ZM77.5119 108.422C77.2739 106.168 76.4949 104.004 75.2419 102.115C75.5979 101.245 75.7809 100.315 75.7799 99.375H81.3069C82.1709 99.372 82.9499 99.892 83.2799 100.691L83.3019 100.745C83.6359 101.544 83.4529 102.465 82.8399 103.075L77.6489 108.267C77.5999 108.317 77.5539 108.368 77.5119 108.422ZM64.8899 95.745H72.1499V99.375C72.1499 101.38 70.5249 103.005 68.5199 103.005C66.5149 103.005 64.8899 101.38 64.8899 99.375V95.745ZM64.8899 91.422L70.5269 88.604C70.8739 88.43 71.2869 88.448 71.6179 88.652C71.9479 88.857 72.1499 89.218 72.1499 89.607V92.115H64.8899V91.422V91.422ZM61.2599 109.953C61.2549 107.873 61.8669 105.838 63.0199 104.106C65.4969 106.996 69.7869 107.475 72.8419 105.205C73.5819 106.678 73.9679 108.305 73.9649 109.953V112.27L72.9829 112.161L69.8029 108.981L67.2369 111.548L68.5799 112.892L64.6319 116.516L61.2599 113.143V109.953V109.953ZM66.4469 148.349L60.2069 159.27H58.0769L61.0439 145.922C61.1869 145.275 61.2599 144.615 61.2599 143.953V137.38C61.3169 137.423 61.3719 137.468 61.4299 137.51L68.1649 142.32L67.0019 146.97C66.8819 147.453 66.6949 147.917 66.4469 148.35V148.349ZM78.9889 140.707C79.2929 141.314 79.4809 141.972 79.5419 142.649L81.0519 159.27H78.9449L74.6019 144.792C74.0209 142.866 72.8189 141.187 71.1839 140.015L63.5399 134.555C62.1099 133.531 61.2619 131.882 61.2599 130.124V128.415H73.9649V130.23C73.9649 130.512 74.0309 130.79 74.1569 131.042L78.9889 140.707V140.707ZM73.9649 124.785H61.2599V118.277L63.2949 120.312C64.9929 122.019 67.3039 122.977 69.7119 122.97H73.9649V124.785V124.785ZM123.793 113.343C122.145 111.689 119.66 111.195 117.505 112.094L117.458 112.114C115.298 113.001 113.889 115.108 113.895 117.443V122.97H103.005V117.443C103.011 115.108 101.603 113.002 99.4429 112.114L99.3969 112.095C97.2419 111.195 94.7559 111.688 93.1069 113.343L89.1999 117.251L81.4999 109.551L85.4079 105.643C87.0649 103.991 87.5569 101.501 86.6519 99.343L86.6369 99.308C85.7499 97.148 83.6429 95.739 81.3079 95.745H75.7799V84.855H81.3069C83.6429 84.86 85.7499 83.451 86.6369 81.289L86.6549 81.247C87.5549 79.091 87.0619 76.606 85.4069 74.957L81.4989 71.049L89.1989 63.349L93.1069 67.257C94.7549 68.912 97.2399 69.405 99.3949 68.506L99.4419 68.486C101.602 67.599 103.011 65.492 103.005 63.157V57.63H113.895V63.157C113.889 65.492 115.297 67.598 117.457 68.486L117.503 68.505C119.658 69.405 122.144 68.912 123.793 67.257L127.7 63.349L135.4 71.049L131.492 74.957C129.835 76.609 129.344 79.099 130.248 81.257L130.263 81.292C131.15 83.452 133.257 84.861 135.592 84.855H141.119V95.745H135.592C133.256 95.74 131.149 97.149 130.262 99.311L130.244 99.353C129.344 101.509 129.837 103.994 131.492 105.643L135.4 109.551L127.7 117.251L123.792 113.343H123.793ZM147.188 122.97C149.596 122.977 151.907 122.02 153.605 120.312L155.64 118.277V124.785H142.935V122.97H147.188V122.97ZM142.298 144.792L137.955 159.27H135.847L137.359 142.649C137.419 141.972 137.607 141.314 137.911 140.707L142.743 131.042C142.869 130.79 142.935 130.512 142.935 130.23V128.415H155.64V130.124C155.638 131.882 154.79 133.531 153.36 134.554L145.715 140.014C144.081 141.187 142.879 142.866 142.298 144.792V144.792ZM156.693 159.27L150.453 148.35C150.205 147.916 150.019 147.452 149.898 146.968L148.736 142.318L155.47 137.508C155.528 137.467 155.583 137.422 155.64 137.378V143.953C155.64 144.615 155.713 145.275 155.856 145.922L158.822 159.27H156.693V159.27Z" fill="#0A1B24"/>
<path d="M108.45 101.19C114.464 101.19 119.34 96.3142 119.34 90.3002C119.34 84.2862 114.464 79.4102 108.45 79.4102C102.436 79.4102 97.5601 84.2862 97.5601 90.3002C97.5671 96.3122 102.438 101.183 108.45 101.19ZM108.45 83.0402C112.46 83.0402 115.71 86.2902 115.71 90.3002C115.71 94.3102 112.46 97.5602 108.45 97.5602C104.44 97.5602 101.19 94.3102 101.19 90.3002C101.195 86.2922 104.442 83.0452 108.45 83.0402Z" fill="#0A1B24"/>
<path d="M126.53 81.8299C124.295 77.0259 120.231 73.3159 115.244 71.5269L114.01 74.9399C121.233 77.5549 125.658 84.8489 124.64 92.4629C123.623 100.077 117.438 105.953 109.782 106.58C102.126 107.207 95.068 102.414 92.826 95.0669L89.355 96.1289C91.536 103.275 97.525 108.605 104.875 109.943C112.226 111.281 119.708 108.403 124.268 102.483C128.827 96.5639 129.7 88.5949 126.53 81.8299V81.8299Z" fill="#0A1B24"/>
</g>
</g>
<defs>
<clipPath id="clip0">
<rect width="224" height="218" fill="white"/>
</clipPath>
<clipPath id="clip1">
<rect width="110" height="110" fill="white" transform="translate(54 54)"/>
</clipPath>
</defs>
</svg>
