<svg xmlns="http://www.w3.org/2000/svg" width="80" height="82" viewBox="0 0 80 82">
    <g fill="none" fill-rule="evenodd">
        <g fill="#FFF" fill-rule="nonzero">
            <g>
                <g>
                    <path d="M76.654 66.28c-.062-.283-.094-.57-.094-.86V40.693c.007-2.574-.954-5.057-2.693-6.956.035-.244.053-.49.053-.737v-6.6c0-.5-.282-.957-.73-1.18l-4.829-2.415c-.73-.368-1.568-.461-2.361-.264V21.12c0-.729-.591-1.32-1.32-1.32h-5.34c-.628.002-1.195-.376-1.434-.957l-.017-.04c-.242-.58-.11-1.25.336-1.695l3.776-3.775c.248-.248.387-.584.387-.934 0-.35-.14-.686-.387-.933l-7.467-7.467c-.515-.515-1.351-.515-1.867 0l-3.775 3.776c-.445.446-1.116.579-1.697.335l-.036-.015c-.582-.239-.96-.806-.959-1.435V1.32C46.2.591 45.609 0 44.88 0H34.32C33.591 0 33 .591 33 1.32v5.34c.002.629-.378 1.197-.96 1.436l-.036.015c-.581.243-1.251.11-1.696-.337L26.533 4c-.516-.515-1.352-.515-1.867 0l-7.467 7.467c-.248.247-.387.583-.387.933 0 .35.14.686.387.934l3.776 3.775c.446.446.579 1.117.334 1.699l-.014.034c-.239.582-.806.96-1.435.959h-5.34c-.729 0-1.32.591-1.32 1.32v1.421c-.793-.197-1.631-.104-2.361.264l-4.83 2.414c-.446.224-.729.681-.729 1.181V33c0 .247.018.493.053.737-1.739 1.9-2.7 4.382-2.693 6.956V65.42c0 .29-.032.577-.094.86L.03 77.593c-.086.39.009.8.26 1.112.25.312.629.494 1.029.494h3.96c.474 0 .911-.254 1.146-.665l4.919-8.608c.3-.524.526-1.087.672-1.673l.396-1.584c.014.04.03.079.042.12l3.44 11.47c.168.558.682.94 1.265.94h3.96c.37 0 .725-.156.975-.43s.373-.64.34-1.01l-1.23-13.527c-.074-.82-.301-1.619-.67-2.354l-3.375-6.75V50.16h7.92c.698 0 1.275-.545 1.316-1.241.048-.036.094-.076.137-.118l3.775-3.776c.445-.446 1.116-.578 1.697-.335l.036.015c.582.239.96.806.959 1.435v5.34c0 .729.591 1.32 1.32 1.32h10.56c.729 0 1.32-.591 1.32-1.32v-5.34c-.002-.629.378-1.197.96-1.436l.036-.015c.581-.243 1.251-.11 1.696.337l3.775 3.775c.043.042.089.082.137.117.04.697.618 1.242 1.316 1.242h7.92v4.968l-3.375 6.75c-.369.736-.596 1.535-.67 2.355l-1.23 13.527c-.033.37.09.736.34 1.01s.604.43.975.43h3.96c.583 0 1.097-.382 1.264-.94l3.441-11.47c.013-.041.028-.08.042-.12l.396 1.584c.146.586.373 1.149.672 1.673l4.919 8.608c.235.411.672.665 1.146.665h3.96c.4 0 .78-.182 1.03-.494s.345-.721.259-1.112l-2.515-11.315zM73.92 40.692v2.32l-2.64 2.64-2.753-2.753 1.046-1.047-1.866-1.866-2.313 2.312-.714.08v-1.686c-.002-1.199.278-2.382.817-3.453 2.221 1.65 5.342 1.302 7.143-.8.838 1.26 1.284 2.74 1.28 4.253zM66 33v-2.64h5.28V33c0 1.458-1.182 2.64-2.64 2.64-1.458 0-2.64-1.182-2.64-2.64zm-2.248 1.993c-.912 1.373-1.479 2.947-1.651 4.587-.031-.04-.065-.077-.1-.113l-3.775-3.775c-.447-.446-.58-1.117-.335-1.699l.014-.034c.24-.582.807-.96 1.435-.959h4.02c0 .683.133 1.36.392 1.993zM62.04 41.29v1.38l-1.549.173 1.51-1.51.039-.043zm-4.537 4.541l8.643-.96c.165-.019.325-.069.472-.147l2.545 2.544c-.445.167-.916.251-1.39.251H55.815l1.688-1.688zm9.313-20.752c.126 0 .251.03.365.086l4.099 2.05v.504H66v-1.824c0-.45.365-.815.816-.816zM12.498 44.676c.168.107.358.174.556.196l8.643.96 1.688 1.688H11.427c-.566 0-1.126-.12-1.641-.355l2.712-2.489zm4.662-2.004v-1.38l.039.042 1.51 1.51-1.549-.172zm-.06-3.092c-.173-1.64-.74-3.214-1.652-4.587.26-.633.392-1.31.392-1.993h4.02c.628-.002 1.195.376 1.434.957l.017.04c.243.58.11 1.25-.336 1.695l-3.776 3.775c-.035.036-.069.073-.1.113zm-9.18-9.22h5.28V33c0 1.458-1.182 2.64-2.64 2.64-1.458 0-2.64-1.182-2.64-2.64v-2.64zm0-3.144l4.1-2.05c.252-.126.553-.113.793.036.24.148.387.411.387.694v1.824H7.92v-.504zM5.28 40.693c-.004-1.513.442-2.993 1.28-4.252 1.801 2.1 4.922 2.45 7.143.799.539 1.071.819 2.254.817 3.453v1.686l-.714-.08-2.313-2.312-1.866 1.866.977.978-2.871 2.635-2.453-2.453v-2.32zm3.773 27.925L4.514 76.56H2.966l2.157-9.708c.104-.47.157-.95.157-1.432v-4.78c.042.03.081.063.124.093l4.897 3.499-.845 3.381c-.088.352-.224.69-.403 1.005zm9.12-5.559c.222.442.358.92.403 1.413l1.099 12.088h-1.533l-3.159-10.53c-.422-1.4-1.296-2.621-2.485-3.474l-5.56-3.97c-1.04-.745-1.657-1.945-1.658-3.223V54.12h9.24v1.32c0 .205.048.407.14.59l3.514 7.03zM14.52 51.48H5.28v-4.733l1.48 1.48c1.235 1.242 2.916 1.938 4.667 1.933h3.093v1.32zm36.238-8.321c-1.198-1.204-3.005-1.563-4.572-.909l-.035.014c-1.57.646-2.595 2.178-2.591 3.876v4.02h-7.92v-4.02c.004-1.698-1.02-3.23-2.59-3.875l-.034-.014c-1.568-.655-3.375-.296-4.574.908L25.599 46l-5.6-5.6 2.842-2.843c1.205-1.2 1.563-3.012.905-4.58l-.01-.027c-.646-1.57-2.178-2.595-3.876-2.591h-4.02v-7.92h4.02c1.699.004 3.231-1.021 3.876-2.593l.013-.031c.655-1.568.296-3.376-.908-4.574L20 12.399l5.6-5.6 2.843 2.842c1.198 1.204 3.005 1.563 4.573.909l.034-.014c1.57-.646 2.595-2.178 2.591-3.876V2.64h7.92v4.02c-.004 1.698 1.02 3.23 2.59 3.875l.034.014c1.568.655 3.375.296 4.574-.908L53.601 6.8l5.6 5.6-2.842 2.843c-1.205 1.2-1.563 3.012-.905 4.58l.01.027c.646 1.57 2.178 2.595 3.876 2.591h4.02v7.92h-4.02c-1.699-.004-3.231 1.021-3.876 2.593l-.013.031c-.655 1.568-.296 3.376.908 4.574l2.842 2.843-5.6 5.6-2.843-2.842zm17.015 7.001c1.751.005 3.432-.691 4.667-1.933l1.48-1.48v4.733h-9.24v-1.32h3.093zm-3.556 15.87l-3.16 10.53h-1.532l1.1-12.088c.044-.492.18-.971.401-1.413l3.515-7.029c.091-.183.139-.385.139-.59v-1.32h9.24v1.243c-.001 1.278-.619 2.478-1.658 3.222l-5.56 3.971c-1.189.853-2.062 2.074-2.485 3.474zm10.469 10.53l-4.539-7.942c-.18-.315-.315-.653-.403-1.005l-.845-3.381 4.897-3.499c.043-.03.082-.063.124-.094v4.781c0 .482.053.962.157 1.432l2.158 9.708h-1.549z" transform="translate(-1070 -1916) translate(230 1643.32) translate(840 273.68)"/>
                    <path d="M39.6 34.32c4.374 0 7.92-3.546 7.92-7.92 0-4.374-3.546-7.92-7.92-7.92-4.374 0-7.92 3.546-7.92 7.92.005 4.372 3.548 7.915 7.92 7.92zm0-13.2c2.916 0 5.28 2.364 5.28 5.28 0 2.916-2.364 5.28-5.28 5.28-2.916 0-5.28-2.364-5.28-5.28.003-2.915 2.365-5.277 5.28-5.28z" transform="translate(-1070 -1916) translate(230 1643.32) translate(840 273.68)"/>
                    <path d="M52.748 20.24c-1.625-3.494-4.58-6.192-8.207-7.493l-.898 2.482c5.253 1.902 8.471 7.207 7.731 12.744-.74 5.537-5.238 9.811-10.806 10.267-5.568.456-10.701-3.03-12.332-8.373l-2.524.773c1.586 5.197 5.942 9.073 11.288 10.046 5.345.973 10.787-1.12 14.103-5.425 3.316-4.305 3.95-10.1 1.645-15.021z" transform="translate(-1070 -1916) translate(230 1643.32) translate(840 273.68)"/>
                </g>
            </g>
        </g>
    </g>
</svg>
